<?xml version="1.0"?><svg version="1.2" baseProfile="tiny-ps" viewBox="0 0 300 300" xmlns="http://www.w3.org/2000/svg" xmlns:xlink="http://www.w3.org/1999/xlink"><title>aaaYour Brand/Organization</title><g><g fill="#88529f" transform="matrix(.1 0 0 -.1 0 300)"><path d="M0 1500V0h3000v3000H0V1500z"/></g><g fill="#664575" transform="matrix(.1 0 0 -.1 0 300)"><path d="M0 1500V0h3000v3000H0V1500zm958 1346 41-28 21-42 20-42v-613l50-27 50-27 24-31c35-47 57-93 64-138l7-41 12-4 12-4 26 25 25 25v822l15 37c20 47 50 79 97 103l37 19h1302l32-14 32-13 32-36 31-35 12-38 13-37-6-281-5-281-15-66-15-66-43-76-42-76-90-103c-49-57-119-134-156-172l-66-69-58-38c-69-44-128-65-215-74l-63-7-27-23-27-23-5-494-5-494-27-41-27-41-43-21-44-21h-475l-32 14-32 13-32 36-32 36-10 38-11 38v553l-27 32-26 32-83-4-83-3-23-23-23-23-5-307-5-307-23-37-23-37-47-22-47-23-132-4-132-4-7-21c-10-31-84-106-129-130l-40-22H285l-47 27-46 28-36 41-35 42-17 49-16 50 4 56 4 57 24 48 24 49 39 34c21 19 49 39 63 44l24 10v2105l10 37 11 37 26 32 27 32 41 18 40 19 246-2 246-3 41-29zm-433-170c-16-8-37-24-45-37l-15-24-3-1003-2-1003 31-17c51-28 98-72 125-118l26-44h119l29 15c15 8 38 27 49 41l21 27v582l19 31c11 18 36 45 57 60l37 29 180 3c99 2 195 1 214-3l33-6 36-31c19-17 42-44 50-59l14-28V523l10-30 11-29 28-17 29-17h254l29 29 29 29v1424l-45 40-46 40-19 39-20 38v132l19 37c11 20 34 51 53 69l33 32 44 16c52 18 100 19 152 3l39-11 40-35 41-34 20-39 20-40v-63l1-63-21-41-20-40-52-45-51-44 4-123 3-122 29-25 30-25 58 6c32 3 73 12 92 20l34 14 55 55c30 30 103 111 161 179l107 123 25 52c13 29 29 76 34 104l10 52v378l-14 34-14 34-31 16-31 16-535-3-535-3-27-28-28-27-5-418-5-417-9-20c-5-11-18-33-29-49l-20-28-41-19-41-19h-205l-38-24c-20-14-59-30-85-37l-48-12-46 7-46 6-45 22-45 23-34 40-34 39-16 55-15 55 5 53 6 54 26 44 26 44 44 38 45 37v451l-11 39-11 39-28 29-28 28H663l-108-1-30-13zm1410-438c-11-6-28-20-37-32l-18-21 1-45v-45l12-15c7-9 23-24 37-33l24-17h61l31 19 32 19 12 36 12 36-12 35-11 35-26 20-26 20h-36c-20 0-45-6-56-12zM912 1965c-42-18-69-51-77-92l-6-32 14-34 15-34 27-21 28-22h96l35 34 36 33v100l-22 28-21 27-33 14c-41 17-50 17-92-1zM294 451l-31-19-17-42-17-43 7-31c3-17 17-45 30-63l24-31 36-12 35-12 34 6 34 7 31 25 30 25 11 41 11 41-17 44-17 45-32 19-31 19h-90l-31-19z"/></g><g fill="#372440" transform="matrix(.1 0 0 -.1 0 300)"><path d="M0 1500V0h3000v3000H0V1500zm925 1371c49-23 89-64 109-113l16-37v-600l37-17c73-35 136-120 149-203l7-41h8c5 0 18 9 29 20l20 20v796l15 50 14 50 33 31c18 18 50 39 70 47l37 16h1266l40-11 40-11 41-42 42-41 12-45 12-45-5-260-5-260-11-65-11-65-40-80c-42-88-61-113-191-262-201-229-276-281-442-303l-82-11-22-25-23-25V395l-24-52-24-52-43-28-42-28-236-3-236-3-38 11-37 11-37 32-36 32-13 32-14 31-6 299-7 298-20 22-20 23h-158l-24-25-25-24V415l-9-39-9-38-29-30c-15-17-48-40-73-51l-45-21-127-4-127-4-12-29-12-30-49-44-50-45-51-15c-64-19-110-19-174 0l-50 15-47 41-47 42-26 51-27 51v140l23 52 23 53 40 35c21 20 50 41 64 47l24 11v2088l11 45 11 44 37 41 36 40 40 14 40 14h225l225 1 40-19zm-404-205c-13-7-30-24-37-37l-13-24-1-995V614l53-34 52-35 35-53 34-52h136l32 29 33 29 5 305 5 305 31 39 30 38 44 23 44 22h357l37-19c20-11 49-32 65-48l27-30 10-34 10-34V493l25-27 24-26h268l27 21 26 20v1429l-54 52-54 53-11 40c-6 22-11 62-11 88v48l14 33c19 47 73 104 120 129l41 21h130l41-22 42-21 34-41 35-40 11-39c7-21 12-60 12-87v-49l-19-41-19-41-51-44-51-44v-232l22-28 21-27 66 4 66 5 34 18 35 17 72 77c40 42 109 119 154 171l81 95 32 65 32 65 3 213c2 117 1 229-3 249l-6 35-24 24-24 24H1568l-29-29-29-29v-787l-10-36c-6-20-20-51-33-70l-22-33-35-20-35-21-110-3-110-3-45-24c-25-13-68-29-94-35l-49-11-53 11-54 11-47 32-48 32-32 54-32 53-6 53-7 53 17 58 17 59 59 58 58 57 2 228 1 227-11 34c-6 19-20 45-33 58l-21 23H661l-116-1-24-13zm1396-450-26-24-7-26-6-26 6-26 7-26 26-24 26-24h88l24 24c13 13 27 36 31 50l6 26-6 26c-4 14-18 37-31 50l-24 24h-88l-26-24zM915 1960c-11-4-30-19-43-33l-24-25-5-39-5-38 24-35 24-35 40-14 41-14 39 19 39 19 18 38 19 37-14 42-13 42-34 23-34 23-26-1c-14 0-35-4-46-9zM311 452l-34-19-19-34-18-34v-60l20-32 19-32 30-16 30-15h62l30 15 30 16 19 32 20 32v60l-18 34-19 34-34 19c-18 10-45 18-59 18s-41-8-59-18z"/></g><g fill="#201f21" transform="matrix(.1 0 0 -.1 0 300)"><path d="M0 1500V0h3000v3000H0V1500zm947 1371 43-25 26-37c14-21 30-55 35-76l9-38v-572l41-18 41-19 34-41c38-47 64-103 64-139 0-14 5-28 10-31l11-7 13 11 13 11 7 426 7 426 19 38 19 38 38 31 37 30 50 11 51 11 630-3 630-3 42-24c48-28 78-65 99-123l14-41v-385l-10-103c-23-233-50-287-277-546-125-142-180-191-268-235l-60-31-89-13-89-13-18-17-18-16-3-487-3-486-21-40c-27-50-48-69-104-94l-45-21h-442l-44 15-44 16-28 27c-16 15-36 41-45 57l-17 30-5 300-6 300-7 16c-5 9-19 21-32 27l-24 11-72-8-72-7-13-19-14-19V443l-10-52-10-51-22-31-23-31-35-18c-49-25-138-40-237-40h-82l-15-27c-8-16-31-45-52-66l-38-38-46-20-45-21h-70l-70-1-52 23-53 22-41 45c-22 24-49 63-60 86l-19 42v150l19 41c24 53 80 115 125 139l36 20v2126l20 38 19 39 38 31 37 31 41 9 40 10 225-2 225-2 42-24zm-420-208-17-5-15-28-15-29V613l24-11c38-17 100-77 121-116l20-36h133l31 25 30 26 3 303 3 303 28 37c16 20 47 49 70 64l41 27h391l33-18c42-23 84-70 99-110l11-32 1-291 1-291 23-21 23-22h273l20 26 21 27v1399l-45 40-46 40-20 40-20 39-6 49-6 50 13 45 13 45 40 46 39 45 39 19 38 20h142l37-19c50-26 96-76 121-131l21-45v-45c0-88-42-171-106-211l-34-21v-236l18-23 19-22 39 1c21 1 61 7 88 13l49 12 60 61c33 33 107 115 164 181l104 120 27 55 27 55v507l-24 19-23 19H1569l-24-25-25-24v-777l-15-52-15-51-26-31c-15-17-39-37-55-46l-29-15-117-6-117-6-54-29-54-28H894l-52 26-51 25-32 37c-17 19-40 54-50 76l-19 41v128l12 41 12 41 58 59 57 59 7 191 6 191-11 64-10 64-22 24-22 23-116-1c-64-1-124-3-134-6zm1411-440c-47-29-60-81-33-133l15-28 33-11 33-11 31 11 32 10 15 24 16 24v31c0 42-15 67-50 85-37 19-58 19-92-2zM891 1934l-30-25-7-36-7-35 17-34 16-34 35-17 35-17 37 10 37 9 24 35 24 35-6 40-5 40-31 28-30 27h-78l-31-26zM318 449l-27-10-21-33-20-33v-64l15-29 15-30 30-15 29-15h66l33 20 32 20 10 26c6 14 10 40 10 57v32l-19 29c-35 52-89 68-153 45z"/></g></g></svg>